<svg width="175" height="23" viewBox="0 0 175 23" fill="none" xmlns="http://www.w3.org/2000/svg">
<path d="M20 8C20 10.6522 18.9464 13.1957 17.0711 15.0711C15.1957 16.9464 12.6522 18 10 18C7.34784 18 4.8043 16.9464 2.92893 15.0711C1.05357 13.1957 4.00466e-07 10.6522 0 8L20 8Z" fill="url(#paint0_linear_17:22)"/>
<path d="M30.736 18.288C33.592 18.288 35.848 16.896 35.848 14.352C35.848 11.688 33.4 11.064 31.432 10.632C29.944 10.296 28.768 10.008 28.768 9.04799C28.768 8.20799 29.752 7.79999 30.952 7.79999C32.224 7.79999 33.304 8.27999 34.144 8.99999L35.56 7.10399C34.48 6.21599 32.92 5.472 30.904 5.472C28.264 5.472 26.032 6.71999 26.032 9.24C26.032 11.928 28.504 12.552 30.472 13.008C31.912 13.344 33.112 13.656 33.112 14.616C33.112 15.48 32.056 15.96 30.688 15.96C29.176 15.96 27.976 15.408 27.04 14.52L25.648 16.416C26.824 17.448 28.504 18.288 30.736 18.288Z" fill="black"/>
<path d="M45.2254 8.20799V5.75999H41.7694V2.59199H39.0814V5.75999H37.0174V8.20799H39.0814V14.424C39.0814 16.8 40.3534 18.288 42.9934 18.288C43.8814 18.288 44.5534 18.12 45.2254 17.784V15.264C44.7454 15.504 44.2174 15.696 43.5454 15.696C42.4174 15.696 41.7694 15.144 41.7694 13.992V8.20799H45.2254Z" fill="black"/>
<path d="M59.3999 11.904C59.3999 8.20799 56.6399 5.472 52.9679 5.472C49.2959 5.472 46.5119 8.208 46.5119 11.832C46.5119 15.504 49.3919 18.288 53.2799 18.288C55.5839 18.288 57.5999 17.304 58.8479 15.744L57.0239 14.184C56.3279 15.096 54.9599 15.864 53.3519 15.864C51.3599 15.864 49.8479 14.712 49.4159 12.96H59.3279C59.3759 12.624 59.3999 12.24 59.3999 11.904ZM52.9439 7.89599C54.6959 7.89599 56.1119 9.024 56.5199 10.752H49.3919C49.8239 9.04799 51.1919 7.89599 52.9439 7.89599Z" fill="black"/>
<path d="M66.8658 2.904C67.5138 2.904 68.0178 3.04799 68.4978 3.31199V0.935995C67.8258 0.599995 67.1778 0.431994 66.2898 0.431994C63.6498 0.431994 62.3778 1.96799 62.3778 4.41599V5.75999H60.3138V8.20799H62.3778V18H65.0658V8.20799H68.3298V5.75999H65.0658V4.58399C65.0658 3.43199 65.7138 2.904 66.8658 2.904Z" fill="black"/>
<path d="M79.4502 5.75999V7.512C78.4422 6.24 76.9542 5.472 75.1542 5.472C71.6982 5.472 69.1302 8.23199 69.1302 11.88C69.1302 15.528 71.6982 18.288 75.1542 18.288C76.9542 18.288 78.4422 17.52 79.4502 16.248V18H82.1382V5.75999H79.4502ZM75.6822 15.696C73.4982 15.696 71.8902 14.04 71.8902 11.88C71.8902 9.71999 73.4982 8.06399 75.6822 8.06399C77.8422 8.06399 79.4502 9.71999 79.4502 11.88C79.4502 14.04 77.8422 15.696 75.6822 15.696Z" fill="black"/>
<path d="M92.1578 5.472C90.4298 5.472 89.0138 6.11999 88.0298 7.34399V5.75999H85.3418V18H88.0298V11.232C88.0298 9.33599 89.3258 8.06399 91.2698 8.06399C93.1178 8.06399 94.3178 9.312 94.3178 11.184V18H97.0058V10.296C97.0058 7.39199 95.0618 5.472 92.1578 5.472Z" fill="black"/>
<path d="M106.806 5.472C105.078 5.472 103.662 6.11999 102.678 7.34399V5.75999H99.9903V18H102.678V11.232C102.678 9.33599 103.974 8.06399 105.918 8.06399C107.766 8.06399 108.966 9.312 108.966 11.184V18H111.654V10.296C111.654 7.39199 109.71 5.472 106.806 5.472Z" fill="black"/>
<path d="M122.391 18.12H118.191C117.327 18.12 116.751 17.64 116.751 16.944C116.751 16.488 116.991 16.032 117.399 15.768C118.095 16.032 118.863 16.176 119.679 16.176C122.895 16.176 125.367 13.872 125.367 10.824C125.367 9.57599 124.959 8.44799 124.239 7.55999C124.311 6.912 124.863 6.50399 125.607 6.50399H126.447V4.00799H125.463C123.903 4.00799 122.775 4.82399 122.463 6.11999C121.647 5.71199 120.711 5.472 119.679 5.472C116.439 5.472 113.991 7.77599 113.991 10.824C113.991 12.36 114.615 13.704 115.647 14.664C114.663 15.24 114.039 16.392 114.039 17.616C114.039 19.464 115.503 20.736 117.687 20.736H121.887C123.111 20.736 123.951 21.36 124.023 22.344L126.807 21.6C126.447 19.44 124.767 18.12 122.391 18.12ZM119.679 8.016C121.335 8.016 122.583 9.21599 122.583 10.824C122.583 12.408 121.335 13.632 119.679 13.632C117.999 13.632 116.751 12.408 116.751 10.824C116.751 9.21599 117.999 8.016 119.679 8.016Z" fill="black"/>
<path d="M133.634 18.288C137.018 18.288 139.274 16.248 139.274 13.128V5.75999H136.586V12.768C136.586 14.52 135.41 15.696 133.634 15.696C131.858 15.696 130.658 14.52 130.658 12.768V5.75999H127.97V13.128C127.97 16.248 130.226 18.288 133.634 18.288Z" fill="black"/>
<path d="M143.592 3.69599C144.576 3.69599 145.32 2.95199 145.32 1.99199C145.32 1.008 144.576 0.287994 143.592 0.287994C142.632 0.287994 141.888 1.008 141.888 1.99199C141.888 2.95199 142.632 3.69599 143.592 3.69599ZM142.248 18H144.936V5.75999H142.248V18Z" fill="black"/>
<path d="M160.275 11.904C160.275 8.20799 157.515 5.472 153.843 5.472C150.171 5.472 147.387 8.208 147.387 11.832C147.387 15.504 150.267 18.288 154.155 18.288C156.459 18.288 158.475 17.304 159.723 15.744L157.899 14.184C157.203 15.096 155.835 15.864 154.227 15.864C152.235 15.864 150.723 14.712 150.291 12.96H160.203C160.251 12.624 160.275 12.24 160.275 11.904ZM153.819 7.89599C155.571 7.89599 156.987 9.024 157.395 10.752H150.267C150.699 9.04799 152.067 7.89599 153.819 7.89599Z" fill="black"/>
<path d="M169.431 5.472C167.703 5.472 166.287 6.11999 165.303 7.34399V5.75999H162.615V18H165.303V11.232C165.303 9.33599 166.599 8.06399 168.543 8.06399C170.391 8.06399 171.591 9.312 171.591 11.184V18H174.279V10.296C174.279 7.39199 172.335 5.472 169.431 5.472Z" fill="black"/>
<defs>
<linearGradient id="paint0_linear_17:22" x1="3" y1="7.5" x2="16" y2="18" gradientUnits="userSpaceOnUse">
<stop offset="0.0001" stop-color="#8F00FF"/>
<stop offset="1" stop-color="#0500FF"/>
</linearGradient>
</defs>
</svg>
