<svg width="48" height="48" viewBox="0 0 48 48" fill="none" xmlns="http://www.w3.org/2000/svg">
<ellipse cx="24" cy="24" rx="24" ry="24" transform="rotate(-90 24 24)" fill="#3D50FF"/>
<path d="M31.1744 25.508C31.099 25.5853 30.8146 25.916 30.5496 26.188C28.9961 27.8987 24.9435 30.6987 22.8224 31.5533C22.5002 31.6907 21.6858 31.9813 21.2507 32C20.8337 32 20.4363 31.904 20.057 31.7093C19.5842 31.4373 19.2049 31.0093 18.9971 30.504C18.8633 30.1533 18.6554 29.104 18.6554 29.0853C18.4476 27.9373 18.3333 26.072 18.3333 24.0107C18.3333 22.0467 18.4476 20.2573 18.6178 19.092C18.6373 19.0733 18.8451 17.7693 19.0724 17.3227C19.4893 16.5067 20.3038 16 21.1753 16L21.2507 16C21.8183 16.02 23.012 16.5267 23.012 16.5453C25.0188 17.4013 28.9779 20.064 30.5691 21.8333C30.5691 21.8333 31.0172 22.288 31.212 22.572C31.516 22.98 31.6666 23.4853 31.6666 23.9907C31.6666 24.5547 31.4965 25.08 31.1744 25.508Z" fill="white"/>
</svg>
