<svg width="48" height="48" viewBox="0 0 48 48" fill="none" xmlns="http://www.w3.org/2000/svg">
<ellipse cx="24" cy="24" rx="24" ry="24" transform="rotate(90 24 24)" fill="#3D50FF"/>
<path d="M16.8256 22.492C16.901 22.4147 17.1854 22.084 17.4504 21.812C19.0039 20.1013 23.0565 17.3013 25.1776 16.4467C25.4998 16.3093 26.3142 16.0187 26.7493 16C27.1663 16 27.5637 16.096 27.943 16.2907C28.4158 16.5627 28.7951 16.9907 29.0029 17.496C29.1367 17.8467 29.3446 18.896 29.3446 18.9147C29.5524 20.0627 29.6667 21.928 29.6667 23.9893C29.6667 25.9533 29.5524 27.7427 29.3822 28.908C29.3627 28.9267 29.1549 30.2307 28.9276 30.6773C28.5107 31.4933 27.6962 32 26.8247 32L26.7493 32C26.1817 31.98 24.988 31.4733 24.988 31.4547C22.9812 30.5987 19.0221 27.936 17.4309 26.1667C17.4309 26.1667 16.9828 25.712 16.788 25.428C16.484 25.02 16.3334 24.5147 16.3334 24.0093C16.3334 23.4453 16.5035 22.92 16.8256 22.492" fill="white"/>
</svg>
