<svg width="40" height="40" viewBox="0 0 40 40" fill="none" xmlns="http://www.w3.org/2000/svg">
<circle cx="20" cy="20" r="20" fill="#3D50FF"/>
<path d="M18.9633 24.2449C18.9101 24.1931 18.6828 23.9975 18.4958 23.8153C17.3197 22.7473 15.3947 19.9611 14.8071 18.5029C14.7127 18.2814 14.5128 17.7215 14.5 17.4223C14.5 17.1357 14.566 16.8624 14.6998 16.6017C14.8868 16.2766 15.1811 16.0159 15.5285 15.873C15.7696 15.781 16.491 15.6381 16.5038 15.6381C17.2931 15.4952 18.5755 15.4167 19.9927 15.4167C21.3429 15.4167 22.5731 15.4952 23.3742 15.6122C23.3871 15.6256 24.2836 15.7685 24.5907 15.9248C25.1517 16.2114 25.5 16.7713 25.5 17.3705V17.4223C25.4863 17.8126 25.1379 18.6333 25.1251 18.6333C24.5366 20.0129 22.706 22.7348 21.4896 23.8287C21.4896 23.8287 21.177 24.1368 20.9818 24.2708C20.7013 24.4797 20.3538 24.5833 20.0064 24.5833C19.6187 24.5833 19.2575 24.4663 18.9633 24.2449" fill="white"/>
</svg>
