<svg width="143" height="45" viewBox="0 0 143 45" fill="none" xmlns="http://www.w3.org/2000/svg">
<path d="M0.0154213 44.7399C0.146084 44.8699 0.407411 45 0.538074 45C0.668737 45 2.17136 43.8295 3.86998 42.4639C10.4685 37.0014 26.6054 24.776 26.8667 25.0361C26.932 25.1012 27.324 25.8815 27.716 26.7919C28.9573 29.5882 30.5906 32.6445 33.2039 36.8714C36.6664 42.4639 38.757 44.6749 39.6717 43.6994C39.933 43.3743 39.8677 43.1792 38.953 42.2688C37.5811 40.9032 36.2744 39.0173 34.3798 35.7659C32.3545 32.3194 30.5253 28.8078 29.3493 26.0116L28.3693 23.8006L29.3493 23.0202C31.3746 21.4595 39.345 15.9971 46.0088 11.6402C53.4566 6.76301 57.9645 4.03179 61.5578 2.21098C63.3217 1.30058 63.8444 0.975432 63.779 0.715316C63.7137 0.520231 63.5177 0.325143 63.3217 0.260115C61.8191 -9.08443e-07 46.1395 9.6893 32.2892 19.3786C29.676 21.1994 27.912 22.3049 27.8467 22.1749C26.0174 17.948 23.2735 8.58382 21.8362 1.75578C21.5095 0.195087 21.0522 -0.325145 20.3989 0.195087C20.0722 0.455199 20.0722 0.715315 20.5295 2.86127C21.1175 5.91763 22.4895 11.5751 23.2081 13.9812C23.7308 15.737 26.148 22.565 26.4747 23.2153C26.54 23.4104 25.0374 24.646 21.7055 27.1171C13.6044 33.1647 2.0407 42.2688 0.538074 43.8295C-0.0499103 44.4147 -0.115242 44.6098 0.146084 44.8699L0.0154213 44.7399Z" fill="black"/>
<path d="M52.2138 20.354C52.8671 19.5737 52.8018 19.0535 52.0178 18.9234C51.5605 18.8584 50.3192 20.4841 50.5152 20.8743C50.7765 21.3945 51.5605 21.1344 52.2138 20.354ZM57.767 25.4913C53.5204 28.2225 49.7965 29.8483 48.3592 29.8483C46.7913 29.8483 46.922 28.7428 48.7512 25.8165C49.7312 24.2558 49.8619 23.9306 49.6005 23.6705C49.4046 23.4754 49.2086 23.3454 49.0126 23.3454C48.5552 23.3454 48.0326 23.9306 47.118 25.2962C46.2686 26.5318 45.55 28.2876 45.55 29.1329C45.55 29.6532 45.746 29.9783 46.2686 30.3685C46.8566 30.8237 47.1833 30.9538 48.0979 30.9538C49.4699 30.9538 50.5152 30.6286 53.2591 29.263C55.2191 28.2876 57.7017 26.8569 59.4656 25.6214C60.2496 25.0361 60.7722 24.646 60.7722 24.5159C60.6416 23.8656 59.7923 24.1257 57.7017 25.4913H57.767Z" fill="black"/>
<path d="M80.2829 24.4509C80.0216 23.8656 79.4336 24.0607 77.6043 25.3613C73.0311 28.6127 69.5032 30.4335 68.3272 30.1084C67.8699 29.9783 68.0006 28.7428 68.6539 27.1821C69.3725 25.4263 69.4379 24.5159 68.7846 24.0607C67.6739 23.2153 65.2566 24.3208 60.9448 27.6373C59.1155 29.0679 58.3968 29.5231 58.5275 29.198C58.7235 28.6127 60.2914 26.0116 61.1408 24.841C61.7287 24.0607 61.7287 23.9957 61.3368 23.6705C61.0754 23.4104 60.8794 23.4104 60.6181 23.5405C59.7035 23.9957 57.1555 28.2225 56.8942 29.6532C56.8289 30.1084 56.8942 30.4335 57.1555 30.6286C57.3515 30.8237 57.7435 30.9538 58.0048 30.9538C58.4622 30.9538 60.8794 29.328 62.6434 27.8324C64.4073 26.3367 67.6086 24.4509 67.9352 24.711C68.0006 24.776 67.8046 25.4913 67.4779 26.3367C66.6286 28.5477 66.4979 29.328 66.9553 30.0434C67.7392 31.2789 69.3072 31.409 71.6591 30.3685C74.0111 29.3931 77.6043 26.987 79.4336 25.4263C80.1522 24.841 80.5442 24.3858 80.4789 24.1908L80.2829 24.4509Z" fill="black"/>
<path d="M91.1259 25.6864C85.3767 29.5881 81.8488 30.8237 79.4316 30.3035C77.8636 29.9783 77.6023 28.8728 78.7129 26.987C79.3662 25.8165 81.1302 24.3208 81.6528 24.4509C81.7835 24.5159 81.9795 24.776 82.0448 25.1012C82.2408 25.8815 82.4368 26.1416 82.9595 26.1416C84.0701 26.1416 83.5474 23.9306 82.3061 23.4754C80.3462 22.7601 77.4716 25.0361 76.6876 27.9624C76.2303 29.5882 77.2756 31.0838 78.9742 31.409C79.3009 31.474 79.6929 31.539 79.8235 31.604C80.7382 31.8642 83.4821 31.2789 85.4421 30.4335C87.9247 29.328 90.9952 27.5723 93.0205 26.0766C93.8698 25.4263 94.3925 24.9061 94.3925 24.711C94.3925 23.9306 93.4778 24.2558 91.1912 25.8165L91.1259 25.6864Z" fill="black"/>
<path d="M113.184 24.4509C112.988 24.0607 112.596 24.1908 111.943 24.5809C111.355 24.9061 107.631 27.5723 105.998 28.4176C104.626 29.1329 104.103 29.328 103.45 29.263C102.796 29.198 102.6 29.198 102.535 28.2225L102.47 26.8569C102.339 24.841 102.274 24.5159 101.882 24.2558C101.62 24.1257 101.228 23.9957 100.967 23.9957C100.118 23.9957 97.5697 25.3613 95.4791 26.987C94.3685 27.8324 93.3885 28.4827 93.3232 28.4176C93.1925 28.2876 95.2831 24.5159 96.8511 22.1098C98.811 19.0535 101.359 15.4118 103.711 12.3555C104.822 10.9249 105.475 9.94942 105.475 9.81936C105.606 9.2341 105.214 9.10404 104.626 9.29913C103.058 9.75433 94.1725 22.5 91.8206 27.6373C90.7753 29.9783 90.6446 30.5636 91.0366 30.9538C91.1672 31.0838 91.4939 31.2139 91.6899 31.2139C91.8859 31.2139 93.3232 30.2384 94.8911 29.0029C97.4391 27.052 100.118 25.3613 100.64 25.3613C100.771 25.3613 100.836 26.1416 100.836 27.052C100.836 27.9624 100.967 29.0029 101.098 29.328C101.555 30.3685 103.45 30.7587 105.214 30.1734C106.912 29.5881 110.767 26.987 112.465 25.4263C112.988 24.9061 113.315 24.5159 113.249 24.3858L113.184 24.4509Z" fill="black"/>
<path d="M127.602 24.841C127.079 25.1662 126.426 25.6864 125.577 26.3367C122.571 28.7428 120.742 29.7182 119.239 29.8483C118.455 29.9133 118.259 29.8483 117.998 29.5231C117.606 28.9379 117.867 27.7673 118.717 26.2066C119.305 25.1662 119.37 24.9061 119.109 24.646C118.717 24.2558 118.455 24.3208 117.737 24.9061L117.083 25.4263L116.757 24.776C116.365 23.9957 115.646 23.6055 114.732 23.6055C114.013 23.6055 113.164 23.8656 112.249 24.3858C109.048 26.2066 106.826 30.1734 108.46 31.1488C109.636 31.8642 111.792 31.0838 114.797 28.8078L116.365 27.6373V28.7428C116.365 29.7182 116.43 29.9133 117.149 30.4986C118.455 31.539 120.089 31.3439 122.963 29.7182C124.531 28.8078 127.014 26.922 128.32 25.6214C128.778 25.1662 129.039 24.841 129.039 24.711C129.039 23.9957 128.712 23.9306 127.471 24.776L127.602 24.841ZM114.209 27.5723C113.36 28.2225 112.053 29.0679 111.334 29.5231C109.636 30.4986 109.244 30.5636 109.44 29.7182C109.897 27.8324 113.49 24.776 114.928 24.841C115.058 24.841 115.189 24.9061 115.254 24.9711C115.385 25.0361 115.581 25.4263 115.712 25.8165C115.908 26.4668 115.842 26.5318 114.34 27.6373L114.209 27.5723Z" fill="black"/>
<path d="M142.872 24.2558C142.545 23.8656 141.892 24.1908 140.193 25.2312C137.318 26.987 134.574 27.7673 132.419 27.7673H131.373L131.7 26.8569C132.288 25.3613 132.157 24.5809 131.112 23.6055C130.785 23.3454 130.263 23.2153 129.74 23.2153C129.217 23.2153 128.695 23.3454 128.303 23.6055C127.976 23.8006 127.584 23.9957 127.388 24.0607C127.192 24.1257 126.604 24.711 126.081 25.3613C123.991 27.8974 123.599 30.1734 125.101 31.2789C125.951 31.8642 126.669 31.9292 127.845 31.539C128.695 31.2789 130.459 29.8483 130.655 29.328C130.785 29.0679 131.047 29.0029 132.157 29.0029C134.836 29.0029 137.449 28.3526 140.846 26.4017C142.676 25.3613 143.198 24.711 142.937 24.3858L142.872 24.2558ZM128.891 29.3931C128.629 29.7182 128.041 30.1734 127.584 30.3685C126.539 30.8887 126.081 30.8887 125.755 30.3035C125.428 29.7182 125.624 28.8728 126.343 27.6373L126.865 26.7269L127.388 27.4422C127.649 27.8324 128.303 28.2225 128.76 28.5477L129.348 28.8728L128.891 29.3931ZM130.393 26.5318C130.263 27.052 130.067 27.5723 129.936 27.6373C129.805 27.7023 129.413 27.5723 129.021 27.3121C128.499 26.922 128.303 26.6618 128.303 26.2066C128.303 25.4913 129.021 24.646 129.675 24.5809C129.74 24.5809 129.805 24.5809 129.871 24.5809C130.524 24.646 130.72 25.2962 130.459 26.5318H130.393Z" fill="black"/>
</svg>
